<svg xmlns="http://www.w3.org/2000/svg" viewBox="0 0 960 420" font-family="'Segoe UI', system-ui, -apple-system, sans-serif">
  <defs>
    <linearGradient id="coreAccent" x1="0%" y1="0%" x2="0%" y2="100%">
      <stop offset="0%" style="stop-color:#0f3460;stop-opacity:1" />
      <stop offset="100%" style="stop-color:#1a1a2e;stop-opacity:1" />
    </linearGradient>
    <marker id="arrowhead" markerWidth="8" markerHeight="6" refX="8" refY="3" orient="auto">
      <polygon points="0 0, 8 3, 0 6" fill="#30363d"/>
    </marker>
  </defs>
  <rect width="960" height="420" rx="8" fill="#0d1117"/>
  <text x="480" y="38" text-anchor="middle" fill="#e6edf3" font-size="16" font-weight="600" letter-spacing="0.5">CastelOS — Architecture Overview</text>
  <rect x="40" y="70" width="240" height="280" rx="6" fill="#161b22" stroke="#30363d" stroke-width="1.5"/>
  <rect x="40" y="70" width="240" height="36" rx="6" fill="#1c2128"/>
  <text x="160" y="93" text-anchor="middle" fill="#7ee787" font-size="13" font-weight="600">WORKSTATION</text>
  <rect x="60" y="122" width="200" height="44" rx="4" fill="#1c2128" stroke="#30363d" stroke-width="1"/>
  <text x="160" y="140" text-anchor="middle" fill="#f0883e" font-size="11" font-weight="600">GPU — Hot Layer</text>
  <text x="160" y="156" text-anchor="middle" fill="#8b949e" font-size="10">Real-time inference</text>
  <rect x="60" y="178" width="200" height="44" rx="4" fill="#1c2128" stroke="#30363d" stroke-width="1"/>
  <text x="160" y="196" text-anchor="middle" fill="#58a6ff" font-size="11" font-weight="600">RAM — Warm Layer</text>
  <text x="160" y="212" text-anchor="middle" fill="#8b949e" font-size="10">State, context, history</text>
  <rect x="60" y="234" width="200" height="44" rx="4" fill="#1c2128" stroke="#30363d" stroke-width="1"/>
  <text x="160" y="252" text-anchor="middle" fill="#8b949e" font-size="11" font-weight="600">CPU — Service Layer</text>
  <text x="160" y="268" text-anchor="middle" fill="#8b949e" font-size="10">Coordination, governance</text>
  <text x="160" y="310" text-anchor="middle" fill="#484f58" font-size="10">Local hardware under</text>
  <text x="160" y="324" text-anchor="middle" fill="#484f58" font-size="10">operator control</text>
  <line x1="290" y1="210" x2="350" y2="210" stroke="#30363d" stroke-width="1.5" marker-end="url(#arrowhead)"/>
  <rect x="360" y="70" width="240" height="280" rx="6" fill="url(#coreAccent)" stroke="#1f6feb" stroke-width="1.5"/>
  <rect x="360" y="70" width="240" height="36" rx="6" fill="#0f3460"/>
  <text x="480" y="93" text-anchor="middle" fill="#58a6ff" font-size="13" font-weight="600">CASTELOS CORE</text>
  <rect x="380" y="122" width="200" height="44" rx="4" fill="#1c2128" stroke="#1f6feb" stroke-width="0.8"/>
  <text x="480" y="140" text-anchor="middle" fill="#e6edf3" font-size="11" font-weight="600">Runtime Lifecycle</text>
  <text x="480" y="156" text-anchor="middle" fill="#8b949e" font-size="10">candidate → eval → active</text>
  <rect x="380" y="178" width="200" height="44" rx="4" fill="#1c2128" stroke="#1f6feb" stroke-width="0.8"/>
  <text x="480" y="196" text-anchor="middle" fill="#e6edf3" font-size="11" font-weight="600">Approval Gates</text>
  <text x="480" y="212" text-anchor="middle" fill="#8b949e" font-size="10">Policy enforcement, audit</text>
  <rect x="380" y="234" width="200" height="44" rx="4" fill="#1c2128" stroke="#1f6feb" stroke-width="0.8"/>
  <text x="480" y="252" text-anchor="middle" fill="#e6edf3" font-size="11" font-weight="600">Task State + History</text>
  <text x="480" y="268" text-anchor="middle" fill="#8b949e" font-size="10">Artifacts preserved, queryable</text>
  <text x="480" y="310" text-anchor="middle" fill="#484f58" font-size="10">Governed execution engine</text>
  <text x="480" y="324" text-anchor="middle" fill="#484f58" font-size="10">controlled, reversible</text>
  <line x1="610" y1="210" x2="670" y2="210" stroke="#30363d" stroke-width="1.5" marker-end="url(#arrowhead)"/>
  <rect x="680" y="70" width="240" height="280" rx="6" fill="#161b22" stroke="#30363d" stroke-width="1.5"/>
  <rect x="680" y="70" width="240" height="36" rx="6" fill="#1c2128"/>
  <text x="800" y="93" text-anchor="middle" fill="#d2a8ff" font-size="13" font-weight="600">PACKS</text>
  <rect x="700" y="122" width="200" height="44" rx="4" fill="#1c2128" stroke="#30363d" stroke-width="1"/>
  <text x="800" y="140" text-anchor="middle" fill="#e6edf3" font-size="11" font-weight="600">Domain Workflows</text>
  <text x="800" y="156" text-anchor="middle" fill="#8b949e" font-size="10">Task-specific execution</text>
  <rect x="700" y="178" width="200" height="44" rx="4" fill="#1c2128" stroke="#30363d" stroke-width="1"/>
  <text x="800" y="196" text-anchor="middle" fill="#e6edf3" font-size="11" font-weight="600">Structured Outputs</text>
  <text x="800" y="212" text-anchor="middle" fill="#8b949e" font-size="10">Evidence, artifacts, reports</text>
  <rect x="700" y="234" width="200" height="44" rx="4" fill="#1c2128" stroke="#30363d" stroke-width="1"/>
  <text x="800" y="252" text-anchor="middle" fill="#e6edf3" font-size="11" font-weight="600">Install Profiles</text>
  <text x="800" y="268" text-anchor="middle" fill="#8b949e" font-size="10">Lite / Pro / Enterprise</text>
  <text x="800" y="310" text-anchor="middle" fill="#484f58" font-size="10">Modular, replaceable,</text>
  <text x="800" y="324" text-anchor="middle" fill="#484f58" font-size="10">auditable bundles</text>
  <rect x="40" y="370" width="880" height="36" rx="4" fill="#161b22" stroke="#30363d" stroke-width="0.8"/>
  <text x="480" y="393" text-anchor="middle" fill="#484f58" font-size="11" font-style="italic">Internal implementation details are intentionally omitted. This diagram shows public-safe architecture principles only.</text>
</svg>
